inDegrees=yes
name=ik_S56_A06_T02
DataType=double
version=3
OpenSimVersion=4.3-2021-08-27-4bc7ad9
endheader
time	pelvis_tilt	pelvis_list	pelvis_rotation	pelvis_tx	pelvis_ty	pelvis_tz	hip_flexion_r	hip_adduction_r	hip_rotation_r	knee_angle_r	knee_angle_r_beta	ankle_angle_r	subtalar_angle_r	mtp_angle_r	hip_flexion_l	hip_adduction_l	hip_rotation_l	knee_angle_l	knee_angle_l_beta	ankle_angle_l	subtalar_angle_l	mtp_angle_l	lumbar_extension	lumbar_bending	lumbar_rotation	arm_flex_r	arm_add_r	arm_rot_r	elbow_flex_r	pro_sup_r	wrist_flex_r	wrist_dev_r	arm_flex_l	arm_add_l	arm_rot_l	elbow_flex_l	pro_sup_l	wrist_flex_l	wrist_dev_l
0	0	0	0	0	0.9399999999999999	0	0	0	0	0	0	0	0	0	0	0	0	0	0	0	0	0	0	0	0	0	0	0	0	89.99999999963507	0	0	0	0	0	0	89.99999999869995	0	0
0.02	-8.504644037184674	-2.132900801108538	24.28308182699593	0	0.9399999999999999	0	3.776916145722541	-1.752671586273302	-1.270292994955096	5.827600956538708	0.1017108241839714	0	0	0	3.776916145722541	-1.752671586273302	-1.270292994955096	5.827600956538708	0.1017108241839714	0	0	0	-6.662976569552009	-1.546622618257402	4.689603385840727	31.64595175248267	-9.734472930622477	3.469115521817636	43.4309211345072	131.8032218524978	0	0	33.65855548402363	-2.245295536607608	13.92155676476806	41.36635472313073	128.7622838068123	0	0
0.04	-8.500264957655855	-2.112176882216084	24.26245076376363	0	0.9399999999999999	0	3.793598079527742	-1.761194843614553	-1.276010197906891	5.849219248901552	0.1020881345643618	0	0	0	3.793598079527742	-1.761194843614553	-1.276010197906891	5.849219248901552	0.1020881345643618	0	0	0	-6.650689236332288	-1.529854163387041	4.696694841058314	31.63892933463182	-9.735956323595742	3.451998440116912	43.40259969816337	131.5726563659752	0	0	33.71345923469487	-2.247804940719614	13.96692095955455	41.27076542852601	128.708881785591	0	0
0.06	-8.488282954636238	-2.091208556042715	24.24621190434095	0	0.9399999999999999	0	3.806517868392493	-1.767795218293942	-1.28043853123801	5.865948208377678	0.1023801099876529	0	0	0	3.806517868392493	-1.767795218293942	-1.28043853123801	5.865948208377678	0.1023801099876529	0	0	0	-6.631280941716035	-1.516039646753079	4.702890559062446	31.61357145221316	-9.733216065430991	3.408274752551586	43.38551139463671	131.53434079721	0	0	33.76773638931807	-2.243167234260237	14.0256335169604	41.14967087774453	128.6598922789235	0	0
0.08	-8.476858995795606	-2.065003047389777	24.22375100670709	0	0.9399999999999999	0	3.821721189298913	-1.775563876775307	-1.285650518223706	5.885617440235682	0.1027234028449132	0	0	0	3.821721189298913	-1.775563876775307	-1.285650518223706	5.885617440235682	0.1027234028449132	0	0	0	-6.610405714328738	-1.496701156273454	4.705976465898395	31.59933260303413	-9.738914949032347	3.370785517904725	43.36091028008872	131.4896431675027	0	0	33.81639572097703	-2.223617628166376	14.07090982374787	40.99486864755691	128.6198980858879	0	0
0.1	-8.472716699622211	-2.058815858098209	24.21563977309085	0	0.9399999999999999	0	3.835499494179721	-1.782598363704863	-1.290373585184091	5.903431610206042	0.1030343187644059	0	0	0	3.835499494179721	-1.782598363704863	-1.290373585184091	5.903431610206042	0.1030343187644059	0	0	0	-6.604027369363758	-1.493954248324363	4.718456233909966	31.62455401829551	-9.711207813783972	3.292182842767186	43.34505297522217	131.4623628117438	0	0	33.88008886950771	-2.236006088801384	14.15129783114286	40.8896792657784	128.5798339690437	0	0
0.12	-8.455460341075185	-2.02737493946607	24.19281114422967	0	0.9399999999999999	0	3.850921549055002	-1.790472216389205	-1.295660828244976	5.923354960199126	0.1033820468198124	0	0	0	3.850921549055002	-1.790472216389205	-1.295660828244976	5.923354960199126	0.1033820468198124	0	0	0	-6.575829804272713	-1.471707790566432	4.717557688232081	31.59456803478114	-9.697020605697418	3.264992690487581	43.30701076302685	131.5451003592617	0	0	33.89373967459192	-2.234909187829455	14.18365761211562	40.77722872310098	128.5355414145079	0	0
0.14	-8.446744931898605	-2.003182269543871	24.16566484353138	0	0.9399999999999999	0	3.851698231894173	-1.790853011997523	-1.295924371464497	5.924366651308332	0.1033997041606812	0	0	0	3.851698231894173	-1.790853011997523	-1.295924371464497	5.924366651308332	0.1033997041606812	0	0	0	-6.558280194853143	-1.452158283905945	4.710317241903209	31.59983325160582	-9.692603394582147	3.261393083234509	43.30623256042783	131.5430778270454	0	-1.738354868158934e-35	33.90701038226716	-2.242042772805814	14.19603081802593	40.7712583065226	128.5374832234348	0	-1.738354868158934e-35
0.16	-8.436745959228242	-1.963035589848465	24.15010089728342	0	0.9399999999999999	0	3.866555581893293	-1.798428410247489	-1.301016973436629	5.943549782893509	0.1037345129676859	0	0	0	3.866555581893293	-1.798428410247489	-1.301016973436629	5.943549782893509	0.1037345129676859	0	0	0	-6.532947859546763	-1.419813651367924	4.716411011104593	31.59133313067808	-9.724586046555238	3.262792296887747	43.26815224899756	131.5015695377395	0	3.519235324806664e-53	33.9107515616319	-2.190840694881601	14.20782362882103	40.59616718968677	128.5100365337809	0	3.519235324806664e-53
0.18	-8.168122614935886	-2.528253415487684	25.14696824960051	0	0.9399999999999999	0	30.74409634622517	-16.45625945288041	-10.00527672624722	48.91525547007129	0.8537322624069106	0	0	0	30.74409634622517	-16.45625945288041	-10.00527672624722	48.91525547007129	0.8537322624069106	0	0	0	-6.542315972872911	-0.7086152810999056	3.806745386324843	31.58649581471653	-9.688001307701981	3.197866313991409	43.3291888189782	131.5279581924838	0	0	33.97038547143368	-2.220060905319869	14.27637156465217	40.42204876527817	128.4781091418085	0	0
0.2	-8.161176659628147	-2.464311563186244	25.11917676928741	0	0.9399999999999999	0	30.74808277723333	-16.45005689957353	-10.00527355026125	48.91636985593016	0.8537517121092855	0	0	0	30.74808277723333	-16.45005689957353	-10.00527355026125	48.91636985593016	0.8537517121092855	0	0	0	-6.509958473521747	-0.6512570045143301	3.793432655740856	31.61285632916821	-9.756164848906547	3.289738880614167	43.21898198886949	131.5379292467297	0	0	33.92653548828849	-2.159258004970712	14.17991031405528	40.4239084718002	128.5105772579957	0	0
0.22	-8.150269173573312	-2.444168692322003	25.11910870534066	0	0.9399999999999999	0	30.75126018945535	-16.44510931012582	-10.00527101744329	48.91725714324065	0.8537671981942647	0	0	0	30.75126018945535	-16.44510931012582	-10.00527101744329	48.91725714324065	0.8537671981942647	0	0	0	-6.491798771119492	-0.6375779173625352	3.795023080096686	31.65267978415504	-9.718689553490158	3.262090608274562	43.14459435312161	131.5750956759696	0	0	33.92657284865992	-2.146028964986606	14.16866530501877	40.37315505237877	128.5414804446212	0	0
0.24	-8.139991179645815	-2.425185870184117	25.12210325104846	0	0.9399999999999999	0	30.73634233853167	-16.45759368661983	-10.00528004852553	48.91268671046129	0.8536874290940238	0	0	0	30.73634233853167	-16.45759368661983	-10.00528004852553	48.91268671046129	0.8536874290940238	0	0	0	-6.472916426224519	-0.6262533130005085	3.79824103409096	31.66312654018628	-9.720320779765197	3.259603796001445	43.09474331324694	131.6161803785729	0	0	33.93814801669466	-2.134196954639353	14.15086296947198	40.31407238581233	128.5819432993021	0	0
0.26	-8.134195136582417	-2.409497654434269	25.11830293300727	0	0.9399999999999999	0	30.73610588451558	-16.45130857899889	-10.00527835763214	48.91237906093821	0.8536820595969039	0	0	0	30.73610588451558	-16.45130857899889	-10.00527835763214	48.91237906093821	0.8536820595969039	0	0	0	-6.461094815102589	-0.6140391950379112	3.794541345231179	31.65017306150131	-9.734896967593201	3.277539435062105	43.07542998509969	131.6221244483112	0	0	33.94514985355237	-2.135408466347652	14.12969990480508	40.25808573034388	128.5981999383541	0	0
0.28	-8.124519393284448	-2.385509120200611	25.114110868301	0	0.9399999999999999	0	30.73273399026959	-16.44816040882361	-10.00527867067194	48.91111981423566	0.8536600815958496	0	0	0	30.73273399026959	-16.44816040882361	-10.00527867067194	48.91111981423566	0.8536600815958496	0	0	0	-6.441824080222644	-0.5966237468555806	3.79437949112152	31.67381311032911	-9.726756784207488	3.298132941190379	43.04910323334092	131.6302055953785	0	0	33.94620434184565	-2.119471357936702	14.13514524369296	40.20458377393233	128.6210095843005	0	0
